<svg width="260" height="260" viewBox="0 0 260 260" fill="none" xmlns="http://www.w3.org/2000/svg">
<path d="M132.5 260C202.916 260 260 201.797 260 130C260 58.203 202.916 0 132.5 0C62.0837 0 5 58.203 5 130C5 201.797 62.0837 260 132.5 260Z" fill="#0098FF"/>
<path d="M95.1299 121.499L162.674 106.211L170.208 139.501L102.664 154.789L95.1299 121.499Z" fill="white"/>
<path d="M210.869 85.7872L206.182 86.8476L217.293 135.94L221.979 134.879C227.393 133.647 230.79 128.265 229.569 122.846L222.899 93.3755C221.666 87.9614 216.284 84.5669 210.869 85.7872Z" fill="white"/>
<path d="M183.105 70.2479L164.495 74.4596L185.524 167.375L204.134 163.163C209.548 161.931 212.944 156.549 211.724 151.132L195.136 77.8379C193.905 72.4235 188.522 69.029 183.105 70.2479Z" fill="white"/>
<path d="M53.6142 109.867L70.2022 183.162C71.4328 188.576 76.8161 191.973 82.2328 190.751L100.843 186.54L79.814 93.6248L61.2043 97.8364C55.7902 99.0689 52.3936 104.451 53.6142 109.867Z" fill="white"/>
<path d="M35.2479 135.846L41.9174 165.314C43.1484 170.731 48.5313 174.126 53.9484 172.907L58.6342 171.846L47.5238 122.754L42.8379 123.815C37.4235 125.046 34.0289 130.428 35.2479 135.846Z" fill="white"/>
</svg>
