<?xml version="1.0" standalone="no"?>
<!DOCTYPE svg PUBLIC "-//W3C//DTD SVG 20010904//EN"
 "http://www.w3.org/TR/2001/REC-SVG-20010904/DTD/svg10.dtd">
<svg version="1.0" xmlns="http://www.w3.org/2000/svg"
 width="512.000000pt" height="512.000000pt" viewBox="0 0 512.000000 512.000000"
 preserveAspectRatio="xMidYMid meet">
<metadata>
Created by potrace 1.14, written by Peter Selinger 2001-2017
</metadata>
<g transform="translate(0.000000,512.000000) scale(0.100000,-0.100000)"
fill="#000000" stroke="none">
<path d="M273 5098 c-116 -39 -220 -147 -258 -268 -11 -38 -13 -392 -12 -2285
l2 -2240 33 -70 c41 -88 124 -169 208 -205 l59 -25 2225 -3 c1464 -1 2241 1
2272 8 121 25 225 110 281 227 l32 68 0 2255 0 2255 -32 67 c-44 93 -100 151
-191 196 l-76 37 -2240 2 -2241 2 -62 -21z"/>
</g>
</svg>
