<svg width="66" height="66" viewBox="0 0 66 66" fill="none" xmlns="http://www.w3.org/2000/svg">
<path d="M33.458 53.2399C44.5069 53.2399 53.4638 44.283 53.4638 33.234C53.4638 22.1851 44.5069 13.2282 33.458 13.2282C22.4091 13.2282 13.4521 22.1851 13.4521 33.234C13.4521 44.283 22.4091 53.2399 33.458 53.2399Z" stroke="#0098FF" stroke-width="10"/>
<path d="M21.0225 30.7096L43.0764 25.7182L45.5365 36.5878L23.4824 41.5793L21.0225 30.7096Z" fill="white"/>
<path d="M58.8126 19.0494L57.2825 19.3957L60.9102 35.4248L62.4402 35.0785C64.208 34.6761 65.3171 32.9189 64.9184 31.1496L62.7406 21.5271C62.3382 19.7593 60.5807 18.651 58.8126 19.0494Z" fill="white"/>
<path d="M49.7474 13.9757L43.6711 15.3509L50.5373 45.6888L56.6136 44.3136C58.3814 43.9112 59.4903 42.1539 59.0918 40.3854L53.6756 16.4539C53.2737 14.6861 51.5162 13.5777 49.7474 13.9757Z" fill="white"/>
<path d="M7.46733 26.9118L12.8835 50.8433C13.2853 52.6111 15.043 53.7202 16.8116 53.3215L22.8879 51.9463L16.0219 21.6085L9.94557 22.9837C8.17781 23.3861 7.06878 25.1433 7.46733 26.9118Z" fill="white"/>
<path d="M1.47035 35.3942L3.64802 45.0161C4.04996 46.7847 5.80753 47.8931 7.57627 47.4951L9.10627 47.1488L5.47859 31.1198L3.94859 31.466C2.1807 31.8679 1.07233 33.6254 1.47035 35.3942Z" fill="white"/>
</svg>
